{"title":"Proof 2005 480i DVDRip.5.1.H.263 . NVEE","uid":12282026,"size":1268361932,"categoryP":"video","categoryS":"movies_dvdr","magnet":"?xt=urn:btih:0451447026e27fe803678fae57f4fae951bdb7bc&amp;dn=Proof+2005+480i+DVDRip.5.1.H.263+.+NVEE&amp;tr=udp%3A%2F%2Ftracker.openbittorrent.com%3A80&amp;tr=udp%3A%2F%2Fopen.demonii.com%3A1337&amp;tr=udp%3A%2F%2Ftracker.coppersurfer.tk%3A6969&amp;tr=udp%3A%2F%2Fexodus.desync.com%3A6969","seeders":0,"leechers":2,"uploader":".NVEE","files":1,"time":1440427103,"description":"\n \nFULL_INFOs \n\n99.99% &gt;&gt;&gt; SYNCED GUARANTEED \n\n&quot;Totally scrutinized / analyzed to be a verified torrent.&quot; \n___________________________________________ \n\nSource : DVD \n \nMy Media Player of Choice &quot;VLC Media Player via HDMI&quot; \n\nSpoken Language : English Only \n\nAudio : 6 Channels \n\n \n\n\n\nAll .srt &amp; .idx subs can be turned On/Off,... \n_____________________________________ \nIMDb? \n \n\nYou can find a link If you want to,... Giggle is your friend ! \n\n--------------------------------------------------------------------------------- \n\n \nGeneral Metadata \n\nComplete name : Proof 2005 480i DVDRip.5.1.H.263 . NVEEProof 2005.480i.DVDRip.5.1.H.263 . NVEE.divx \nFormat : AVI \nFormat/Info : Audio Video Interleave \nFile size : 1.18 GiB \nDuration : 1h 36mn \nOverall bit rate : 1 758 Kbps \n\n \nVideo \n\nID : 0 \nFormat : MPEG-4 Visual \nFormat settings, BVOP : 1 \nFormat settings, QPel : No \nFormat settings, GMC : No warppoints \nFormat settings, Matrix : Default (H.263) \nMuxing mode : Packed bitstream \nCodec ID : DX50 \nCodec ID/Hint : DivX 5 \nDuration : 1h 36mn \nBit rate : 1 300 Kbps \nWidth : 704 pixels \nHeight : 304 pixels \nDisplay aspect ratio : 2.35:1 \nFrame rate : 25.000 fps \nColor space : YUV \nChroma subsampling : 4:2:0 \nBit depth : 8 bits \nScan type : Progressive \nCompression mode : Lossy \nBits/(Pixel*Frame) : 0.243 \nStream size : 895 MiB (74%) \nTitle : Video \nWriting library : DivX 6.8.5 (UTC 2009-08-20) \n\n \nAudio \n\nID : 1 \nFormat : AC-3 \nFormat/Info : Audio Coding 3 \nMode extension : CM (complete main) \nFormat settings, Endianness : Big \nCodec ID : 2000 \nDuration : 1h 36mn \nBit rate mode : Constant \nBit rate : 448 Kbps \nChannel(s) : 6 channels \nChannel positions : Front: L C R, Side: L R, LFE \nSampling rate : 48.0 KHz \nCompression mode : Lossy \nStream size : 308 MiB (25%) \nAlignment : Split accross interleaves \nInterleave, duration : 40 ms (1.00 video frame) \nInterleave, preload duration : 500 ms \nTitle : Audio \n\nEncoded from physical DVD 5.1 Channel audio. \n\n \n\n \n\n \n\n\n\n\nEnj0y !","torrent":{"xt":"urn:btih:0451447026e27fe803678fae57f4fae951bdb7bc","amp;dn":"Proof+2005+480i+DVDRip.5.1.H.263+.+NVEE","amp;tr":["udp%3A%2F%2Ftracker.openbittorrent.com%3A80","udp%3A%2F%2Fopen.demonii.com%3A1337","udp%3A%2F%2Ftracker.coppersurfer.tk%3A6969","udp%3A%2F%2Fexodus.desync.com%3A6969"],"infoHash":"0451447026e27fe803678fae57f4fae951bdb7bc","infoHashBuffer":{"type":"Buffer","data":[4,81,68,112,38,226,127,232,3,103,143,174,87,244,250,233,81,189,183,188]},"announce":[],"urlList":[]}}